<?xml version="1.0" encoding="UTF-8" standalone="no"?>
<!DOCTYPE svg PUBLIC "-//W3C//DTD SVG 1.1//EN" "http://www.w3.org/Graphics/SVG/1.1/DTD/svg11.dtd">
<svg version="1.1" xmlns="http://www.w3.org/2000/svg" xmlns:xlink="http://www.w3.org/1999/xlink" preserveAspectRatio="xMidYMid meet" viewBox="0 0 640 640" width="640" height="640"><defs><path d="M147.38 191.89L296.24 111.55L301.88 121L153.01 201.34L147.38 191.89Z" id="e9re7677vo"></path><path d="M301.7 107.86L143.83 191.19L149.37 200.69L307.24 117.36L301.7 107.86Z" id="aRAi6fTS4"></path><path d="M143.84 191.41L110.89 245.2L117.29 248.74L150.23 194.95L143.84 191.41Z" id="ic634Gs8v"></path><path d="M142.44 193.57L160.61 328.61L171.94 327.23L153.77 192.2L142.44 193.57Z" id="dtLnr2oGi"></path><path d="M110.61 247.22L109.44 393.45L116.84 393.51L118.01 247.27L110.61 247.22Z" id="b2EkJAFOWN"></path><path d="M325.7 319.81L171.98 319.23L171.94 330.09L325.65 330.68L325.7 319.81Z" id="d1L2p2akaW"></path><path d="M160.65 326.09L149.31 444.08L160.68 445.07L172.03 327.08L160.65 326.09Z" id="aotJpq6x7"></path><path d="M289.47 530.69L151.45 451.59L157.35 442.28L295.36 521.39L289.47 530.69Z" id="c2hOfLrs8I"></path><path d="M109.44 395.27L149.96 450.22L156.02 446.18L115.5 391.23L109.44 395.27Z" id="k13m8rzlTO"></path><path d="M539.16 225.84L509.85 177.1L503.43 180.59L532.74 229.34L539.16 225.84Z" id="c18fwxhkex"></path><path d="M530.26 224.6L409.07 176.35L404.66 186.37L525.85 234.62L530.26 224.6Z" id="a1OR1UU34"></path><path d="M508.15 175.85L375.62 101.77L371.87 107.84L504.4 181.92L508.15 175.85Z" id="b1aELIsH4s"></path><path d="M331.27 326.09L411.33 190.68L401.38 185.36L321.32 320.77L331.27 326.09Z" id="m4eG0sy0GV"></path><path d="M411.33 177.65L309.6 109.31L303.01 118.18L404.74 186.52L411.33 177.65Z" id="a6no1pHJz"></path><path d="M373.96 100.86L303.68 106.77L304.33 113.78L374.61 107.88L373.96 100.86Z" id="ag41jpHPB"></path><path d="M301.95 535.74L154.38 453.26L160.16 443.89L307.74 526.37L301.95 535.74Z" id="b12PGSkP47"></path><path d="M155.95 455.08L302.7 538.88L308.58 529.57L161.83 445.76L155.95 455.08Z" id="f1RcjWxA0k"></path><path d="M303.28 538.9L368.72 539.14L368.75 532.1L303.31 531.85L303.28 538.9Z" id="a58k2r7kUZ"></path><path d="M305.95 538.96L419.79 456.48L412.87 447.84L299.03 530.32L305.95 538.96Z" id="bbxUR3Y64"></path><path d="M370.7 538.36L504.41 466.21L500.76 460.09L367.05 532.24L370.7 538.36Z" id="a1urjAng4b"></path><path d="M417.48 457.7L530.56 408.05L525.77 398.19L412.7 447.83L417.48 457.7Z" id="c17yFdtK41"></path><path d="M506.07 465.3L535.83 404.44L529.12 401.47L499.35 462.33L506.07 465.3Z" id="b3wCWo0Fpm"></path><path d="M539.74 228.2L536.32 402.53L524.91 402.33L528.32 228L539.74 228.2Z" id="b2ehLAJ1W2"></path><path d="M318.51 328.63L411.69 456.22L421.07 450.02L327.89 322.43L318.51 328.63Z" id="aOwywvHE9"></path></defs><g><g><g><g><use xlink:href="#e9re7677vo" opacity="1" fill="#000000" fill-opacity="1"></use><g><use xlink:href="#e9re7677vo" opacity="1" fill-opacity="0" stroke="#000000" stroke-width="1" stroke-opacity="1"></use></g></g><g><use xlink:href="#aRAi6fTS4" opacity="1" fill="#000000" fill-opacity="1"></use><g><use xlink:href="#aRAi6fTS4" opacity="1" fill-opacity="0" stroke="#000000" stroke-width="1" stroke-opacity="1"></use></g></g><g><use xlink:href="#ic634Gs8v" opacity="1" fill="#000000" fill-opacity="1"></use><g><use xlink:href="#ic634Gs8v" opacity="1" fill-opacity="0" stroke="#000000" stroke-width="1" stroke-opacity="1"></use></g></g><g><use xlink:href="#dtLnr2oGi" opacity="1" fill="#000000" fill-opacity="1"></use><g><use xlink:href="#dtLnr2oGi" opacity="1" fill-opacity="0" stroke="#000000" stroke-width="1" stroke-opacity="1"></use></g></g><g><use xlink:href="#b2EkJAFOWN" opacity="1" fill="#000000" fill-opacity="1"></use><g><use xlink:href="#b2EkJAFOWN" opacity="1" fill-opacity="0" stroke="#000000" stroke-width="1" stroke-opacity="1"></use></g></g><g><use xlink:href="#d1L2p2akaW" opacity="1" fill="#000000" fill-opacity="1"></use><g><use xlink:href="#d1L2p2akaW" opacity="1" fill-opacity="0" stroke="#000000" stroke-width="1" stroke-opacity="1"></use></g></g><g><use xlink:href="#aotJpq6x7" opacity="1" fill="#000000" fill-opacity="1"></use><g><use xlink:href="#aotJpq6x7" opacity="1" fill-opacity="0" stroke="#000000" stroke-width="1" stroke-opacity="1"></use></g></g><g><use xlink:href="#c2hOfLrs8I" opacity="1" fill="#000000" fill-opacity="1"></use><g><use xlink:href="#c2hOfLrs8I" opacity="1" fill-opacity="0" stroke="#000000" stroke-width="1" stroke-opacity="1"></use></g></g><g><use xlink:href="#k13m8rzlTO" opacity="1" fill="#000000" fill-opacity="1"></use><g><use xlink:href="#k13m8rzlTO" opacity="1" fill-opacity="0" stroke="#000000" stroke-width="1" stroke-opacity="1"></use></g></g><g><use xlink:href="#c18fwxhkex" opacity="1" fill="#000000" fill-opacity="1"></use><g><use xlink:href="#c18fwxhkex" opacity="1" fill-opacity="0" stroke="#000000" stroke-width="1" stroke-opacity="1"></use></g></g><g><use xlink:href="#a1OR1UU34" opacity="1" fill="#000000" fill-opacity="1"></use><g><use xlink:href="#a1OR1UU34" opacity="1" fill-opacity="0" stroke="#000000" stroke-width="1" stroke-opacity="1"></use></g></g><g><use xlink:href="#b1aELIsH4s" opacity="1" fill="#000000" fill-opacity="1"></use><g><use xlink:href="#b1aELIsH4s" opacity="1" fill-opacity="0" stroke="#000000" stroke-width="1" stroke-opacity="1"></use></g></g><g><use xlink:href="#m4eG0sy0GV" opacity="1" fill="#000000" fill-opacity="1"></use><g><use xlink:href="#m4eG0sy0GV" opacity="1" fill-opacity="0" stroke="#000000" stroke-width="1" stroke-opacity="1"></use></g></g><g><use xlink:href="#a6no1pHJz" opacity="1" fill="#000000" fill-opacity="1"></use><g><use xlink:href="#a6no1pHJz" opacity="1" fill-opacity="0" stroke="#000000" stroke-width="1" stroke-opacity="1"></use></g></g><g><use xlink:href="#ag41jpHPB" opacity="1" fill="#000000" fill-opacity="1"></use><g><use xlink:href="#ag41jpHPB" opacity="1" fill-opacity="0" stroke="#000000" stroke-width="1" stroke-opacity="1"></use></g></g><g><use xlink:href="#b12PGSkP47" opacity="1" fill="#000000" fill-opacity="1"></use><g><use xlink:href="#b12PGSkP47" opacity="1" fill-opacity="0" stroke="#000000" stroke-width="1" stroke-opacity="1"></use></g></g><g><use xlink:href="#f1RcjWxA0k" opacity="1" fill="#000000" fill-opacity="1"></use><g><use xlink:href="#f1RcjWxA0k" opacity="1" fill-opacity="0" stroke="#000000" stroke-width="1" stroke-opacity="1"></use></g></g><g><use xlink:href="#a58k2r7kUZ" opacity="1" fill="#000000" fill-opacity="1"></use><g><use xlink:href="#a58k2r7kUZ" opacity="1" fill-opacity="0" stroke="#000000" stroke-width="1" stroke-opacity="1"></use></g></g><g><use xlink:href="#bbxUR3Y64" opacity="1" fill="#000000" fill-opacity="1"></use><g><use xlink:href="#bbxUR3Y64" opacity="1" fill-opacity="0" stroke="#000000" stroke-width="1" stroke-opacity="1"></use></g></g><g><use xlink:href="#a1urjAng4b" opacity="1" fill="#000000" fill-opacity="1"></use><g><use xlink:href="#a1urjAng4b" opacity="1" fill-opacity="0" stroke="#000000" stroke-width="1" stroke-opacity="1"></use></g></g><g><use xlink:href="#c17yFdtK41" opacity="1" fill="#000000" fill-opacity="1"></use><g><use xlink:href="#c17yFdtK41" opacity="1" fill-opacity="0" stroke="#000000" stroke-width="1" stroke-opacity="1"></use></g></g><g><use xlink:href="#b3wCWo0Fpm" opacity="1" fill="#000000" fill-opacity="1"></use><g><use xlink:href="#b3wCWo0Fpm" opacity="1" fill-opacity="0" stroke="#000000" stroke-width="1" stroke-opacity="1"></use></g></g><g><use xlink:href="#b2ehLAJ1W2" opacity="1" fill="#000000" fill-opacity="1"></use><g><use xlink:href="#b2ehLAJ1W2" opacity="1" fill-opacity="0" stroke="#000000" stroke-width="1" stroke-opacity="1"></use></g></g><g><use xlink:href="#aOwywvHE9" opacity="1" fill="#000000" fill-opacity="1"></use><g><use xlink:href="#aOwywvHE9" opacity="1" fill-opacity="0" stroke="#000000" stroke-width="1" stroke-opacity="1"></use></g></g></g></g></g></svg>